<svg id="visual" viewBox="0 0 900 600" width="900" height="600" xmlns="http://www.w3.org/2000/svg" xmlns:xlink="http://www.w3.org/1999/xlink" version="1.1"><path d="M0 145L13.7 137C27.3 129 54.7 113 82 104C109.3 95 136.7 93 163.8 100C191 107 218 123 245.2 134C272.3 145 299.7 151 327 169C354.3 187 381.7 217 409 227C436.3 237 463.7 227 491 209C518.3 191 545.7 165 573 174C600.3 183 627.7 227 654.8 222C682 217 709 163 736.2 133C763.3 103 790.7 97 818 120C845.3 143 872.7 195 886.3 221L900 247L900 0L886.3 0C872.7 0 845.3 0 818 0C790.7 0 763.3 0 736.2 0C709 0 682 0 654.8 0C627.7 0 600.3 0 573 0C545.7 0 518.3 0 491 0C463.7 0 436.3 0 409 0C381.7 0 354.3 0 327 0C299.7 0 272.3 0 245.2 0C218 0 191 0 163.8 0C136.7 0 109.3 0 82 0C54.7 0 27.3 0 13.7 0L0 0Z" fill="#6198ff"></path><path d="M0 223L13.7 215C27.3 207 54.7 191 82 183C109.3 175 136.7 175 163.8 179C191 183 218 191 245.2 208C272.3 225 299.7 251 327 277C354.3 303 381.7 329 409 328C436.3 327 463.7 299 491 275C518.3 251 545.7 231 573 239C600.3 247 627.7 283 654.8 281C682 279 709 239 736.2 216C763.3 193 790.7 187 818 202C845.3 217 872.7 253 886.3 271L900 289L900 245L886.3 219C872.7 193 845.3 141 818 118C790.7 95 763.3 101 736.2 131C709 161 682 215 654.8 220C627.7 225 600.3 181 573 172C545.7 163 518.3 189 491 207C463.7 225 436.3 235 409 225C381.7 215 354.3 185 327 167C299.7 149 272.3 143 245.2 132C218 121 191 105 163.8 98C136.7 91 109.3 93 82 102C54.7 111 27.3 127 13.7 135L0 143Z" fill="#3c80ff"></path><path d="M0 433L13.7 440C27.3 447 54.7 461 82 462C109.3 463 136.7 451 163.8 430C191 409 218 379 245.2 386C272.3 393 299.7 437 327 455C354.3 473 381.7 465 409 462C436.3 459 463.7 461 491 455C518.3 449 545.7 435 573 435C600.3 435 627.7 449 654.8 445C682 441 709 419 736.2 419C763.3 419 790.7 441 818 438C845.3 435 872.7 407 886.3 393L900 379L900 287L886.3 269C872.7 251 845.3 215 818 200C790.7 185 763.3 191 736.2 214C709 237 682 277 654.8 279C627.7 281 600.3 245 573 237C545.7 229 518.3 249 491 273C463.7 297 436.3 325 409 326C381.7 327 354.3 301 327 275C299.7 249 272.3 223 245.2 206C218 189 191 181 163.8 177C136.7 173 109.3 173 82 181C54.7 189 27.3 205 13.7 213L0 221Z" fill="#0066ff"></path><path d="M0 499L13.7 505C27.3 511 54.7 523 82 524C109.3 525 136.7 515 163.8 511C191 507 218 509 245.2 518C272.3 527 299.7 543 327 548C354.3 553 381.7 547 409 545C436.3 543 463.7 545 491 543C518.3 541 545.7 535 573 532C600.3 529 627.7 529 654.8 526C682 523 709 517 736.2 518C763.3 519 790.7 527 818 532C845.3 537 872.7 539 886.3 540L900 541L900 377L886.3 391C872.7 405 845.3 433 818 436C790.7 439 763.3 417 736.2 417C709 417 682 439 654.8 443C627.7 447 600.3 433 573 433C545.7 433 518.3 447 491 453C463.7 459 436.3 457 409 460C381.7 463 354.3 471 327 453C299.7 435 272.3 391 245.2 384C218 377 191 407 163.8 428C136.7 449 109.3 461 82 460C54.7 459 27.3 445 13.7 438L0 431Z" fill="#0059dd"></path><path d="M0 601L13.7 601C27.3 601 54.7 601 82 601C109.3 601 136.7 601 163.8 601C191 601 218 601 245.2 601C272.3 601 299.7 601 327 601C354.3 601 381.7 601 409 601C436.3 601 463.7 601 491 601C518.3 601 545.7 601 573 601C600.3 601 627.7 601 654.8 601C682 601 709 601 736.2 601C763.3 601 790.7 601 818 601C845.3 601 872.7 601 886.3 601L900 601L900 539L886.3 538C872.7 537 845.3 535 818 530C790.7 525 763.3 517 736.2 516C709 515 682 521 654.8 524C627.7 527 600.3 527 573 530C545.7 533 518.3 539 491 541C463.7 543 436.3 541 409 543C381.7 545 354.3 551 327 546C299.7 541 272.3 525 245.2 516C218 507 191 505 163.8 509C136.7 513 109.3 523 82 522C54.7 521 27.3 509 13.7 503L0 497Z" fill="#004cbb"></path></svg>